<svg xmlns="http://www.w3.org/2000/svg" viewBox="0 0 1000 620">
<defs><linearGradient id="bg" x2="1" y2="1"><stop stop-color="#0a1730"/><stop offset="1" stop-color="#1c123b"/></linearGradient><linearGradient id="scan"><stop stop-color="#55e3ff"/><stop offset="1" stop-color="#a45cff"/></linearGradient></defs>
<rect width="1000" height="620" rx="28" fill="url(#bg)"/><g opacity=".22" stroke="#72a8ff"><path d="M0 120H1000M0 240H1000M0 360H1000M0 480H1000"/><path d="M150 0V620M300 0V620M450 0V620M600 0V620M750 0V620M900 0V620"/></g>
<rect x="55" y="65" width="575" height="390" rx="22" fill="#07101f" stroke="#354b78"/><rect x="82" y="100" width="160" height="115" rx="12" fill="#172c4b"/><rect x="260" y="100" width="160" height="115" rx="12" fill="#1a2349"/><rect x="438" y="100" width="160" height="115" rx="12" fill="#2b1747"/>
<path d="M82 330h516" stroke="url(#scan)" stroke-width="7"/><circle cx="182" cy="157" r="27" fill="none" stroke="#55e3ff" stroke-width="5"/><path d="M162 178l18-20 15 10" fill="none" stroke="#55e3ff" stroke-width="4"/><circle cx="340" cy="158" r="28" fill="none" stroke="#a45cff" stroke-width="5"/><path d="M318 170l22-25 20 18" fill="none" stroke="#a45cff" stroke-width="4"/><path d="M475 165h85M475 185h55" stroke="#ff6b9a" stroke-width="7" stroke-linecap="round"/>
<rect x="685" y="120" width="245" height="245" rx="28" fill="#0c1629" stroke="#455c86"/><path d="M807 155c-45 0-82 33-82 75 0 21 9 39 24 52v43h116v-43c15-13 24-31 24-52 0-42-37-75-82-75Z" fill="#182b49" stroke="#55e3ff" stroke-width="4"/><path d="M807 177v127M765 215h84M770 260h74" stroke="#5d7fb8" stroke-width="3"/><path d="M735 355h145" stroke="#a45cff" stroke-width="8" stroke-linecap="round"/>
<text x="55" y="535" fill="#b986ff" font-family="Arial" font-size="18" font-weight="700" letter-spacing="4">SOCIAL MEDIA NETWORK FILTERING</text><text x="55" y="565" fill="#91a5c2" font-family="Arial" font-size="15">VIDEO FRAMES • CNN • CONTENT MODERATION</text></svg>